<svg width="19.148926" height="18.165039" viewBox="0 0 19.1489 18.165" fill="none" xmlns="http://www.w3.org/2000/svg" xmlns:xlink="http://www.w3.org/1999/xlink">
	<desc>
			Created with Pixso.
	</desc>
	<defs/>
	<path d="M19.1489 0L19.1489 12.9448L16.5957 15.4507L10.2126 15.4507L7.65967 18.165L5.31909 18.165L5.31909 14.4067L0 14.4067L0 2.29688L2.12769 0L19.1489 0ZM6.5957 12.7363L3.19141 12.7363C2.95728 12.7363 2.76587 12.5483 2.76587 12.3188L2.76587 2.08789C2.76587 1.8584 2.95728 1.67041 3.19141 1.67041L16.8083 1.67041C17.0425 1.67041 17.2339 1.8584 17.2339 2.08789L17.2339 10.022C17.2339 10.1367 17.1914 10.2412 17.1116 10.3198L14.7712 12.6162C14.6914 12.6948 14.5796 12.7363 14.468 12.7363L10.5583 12.7363L7.2605 14.96C7.19141 15.0068 7.1062 15.0332 7.02124 15.0332C6.95215 15.0332 6.88818 15.0176 6.82446 14.9858C6.68066 14.9131 6.5957 14.772 6.5957 14.6152L6.5957 12.7363Z" clip-rule="evenodd" fill="#FFFFFF" fill-opacity="1.000000" fill-rule="evenodd"/>
	<path d="M12.97 9.08L12.97 4.9L11.27 4.9L11.27 9.08L12.97 9.08ZM8.72 9.08L8.72 4.9L7.02 4.9L7.02 9.08L8.72 9.08Z" fill="#FFFFFF" fill-opacity="1.000000" fill-rule="nonzero"/>
</svg>
