<svg width="21.008057" height="16.000977" viewBox="0 0 21.0081 16.001" fill="none" xmlns="http://www.w3.org/2000/svg" xmlns:xlink="http://www.w3.org/1999/xlink">
	<desc>
			Created with Pixso.
	</desc>
	<defs/>
	<path d="M21 1.89C20.23 2.21 19.4 2.43 18.53 2.52C19.42 2.02 20.1 1.23 20.42 0.29C19.59 0.75 18.67 1.09 17.68 1.27C16.9 0.49 15.78 0 14.54 0C12.16 0 10.23 1.8 10.23 4.03C10.23 4.35 10.27 4.66 10.34 4.95C6.76 4.79 3.58 3.18 1.46 0.74C1.09 1.33 0.87 2.02 0.87 2.77C0.87 4.17 1.63 5.4 2.79 6.13C2.09 6.11 1.42 5.93 0.84 5.62C0.84 5.64 0.84 5.66 0.84 5.67C0.84 7.63 2.32 9.26 4.3 9.63C3.93 9.73 3.55 9.77 3.16 9.77C2.88 9.77 2.61 9.75 2.35 9.7C2.9 11.31 4.49 12.48 6.38 12.51C4.9 13.59 3.04 14.24 1.02 14.24C0.67 14.24 0.33 14.22 0 14.18C1.9 15.33 4.17 16 6.6 16C14.53 16 18.87 9.84 18.87 4.5C18.87 4.33 18.86 4.15 18.85 3.98C19.69 3.41 20.42 2.7 21 1.89Z" fill="#FFFFFF" fill-opacity="1.000000" fill-rule="evenodd"/>
</svg>
