<svg width="24.994629" height="17.994629" viewBox="0 0 24.9946 17.9946" fill="none" xmlns="http://www.w3.org/2000/svg" xmlns:xlink="http://www.w3.org/1999/xlink">
	<desc>
			Created with Pixso.
	</desc>
	<defs/>
	<path d="M19.81 0L5.18 0C2.32 0 0 2.36 0 5.28L0 12.71C0 15.63 2.32 17.99 5.18 17.99L19.8 17.99C22.67 17.99 24.99 15.62 24.99 12.71L24.99 5.28C25 2.36 22.67 0 19.81 0ZM16.29 9.36L9.45 12.68C9.27 12.76 9.06 12.63 9.06 12.42L9.06 5.58C9.06 5.37 9.28 5.24 9.46 5.33L16.3 8.86C16.5 8.96 16.5 9.26 16.29 9.36Z" fill="#FF1313" fill-opacity="1.000000" fill-rule="nonzero"/>
</svg>
